<svg width="107" height="106" viewBox="0 0 107 106" fill="none" xmlns="http://www.w3.org/2000/svg">
<rect width="106" height="106" rx="24" fill="#53ACED"/>
<path d="M0.5 33H105.5M0.5 53H105.5M0.5 73H105.5M7.5 98.5H98.5M7 7.5H98.5" stroke="#66B7F2"/>
<path d="M32.3607 0.5V105.5M52.2514 0.5V105.5M72.1421 0.5V105.5M7 8L7 97.6857L98 7V99L7 8Z" stroke="#66B7F2" stroke-linecap="round" stroke-linejoin="round"/>
<path d="M98.5 53C98.5 78.1239 77.9102 98.5 52.5 98.5C27.0898 98.5 6.5 78.1239 6.5 53C6.5 27.8761 27.0898 7.5 52.5 7.5C77.9102 7.5 98.5 27.8761 98.5 53Z" stroke="#66B7F2"/>
<path d="M78.5 53C78.5 67.6269 66.4204 79.5 51.5 79.5C36.5796 79.5 24.5 67.6269 24.5 53C24.5 38.3731 36.5796 26.5 51.5 26.5C66.4204 26.5 78.5 38.3731 78.5 53Z" stroke="#66B7F2"/>
<path fill-rule="evenodd" clip-rule="evenodd" d="M106 57.5V82C106 95.2548 95.2548 106 82 106H57.5L106 57.5Z" fill="#66B7F2"/>
<path d="M87.825 97.4838C88.3059 97.003 88.5123 96.491 88.4444 95.948C88.3822 95.3993 88.006 94.7798 87.3159 94.0897C86.6937 93.4675 86.1195 93.1365 85.5934 93.0969C85.073 93.0517 84.5723 93.2695 84.0915 93.7503C83.984 93.8578 83.8879 93.9709 83.803 94.0897C83.7691 94.1463 83.7747 94.1972 83.82 94.2424L87.3244 97.7469C87.3753 97.7978 87.429 97.8063 87.4856 97.7723C87.6044 97.6875 87.7175 97.5913 87.825 97.4838ZM82.6066 92.6048C83.6248 91.5865 84.6911 91.0689 85.8055 91.052C86.9143 91.0293 87.9551 91.5045 88.9281 92.4775C89.9859 93.5353 90.5092 94.6299 90.4979 95.7613C90.4922 96.887 89.9831 97.9562 88.9705 98.9687C88.5236 99.4156 88.0372 99.8569 87.5111 100.292C87.364 100.417 87.1915 100.471 86.9935 100.454C86.7955 100.437 86.6286 100.36 86.4928 100.225L81.3508 95.0825C81.215 94.9467 81.1386 94.7798 81.1216 94.5819C81.1047 94.3839 81.1584 94.2113 81.2829 94.0642C81.7184 93.5382 82.1597 93.0517 82.6066 92.6048ZM90.3636 85.0175C90.4937 84.8874 90.6549 84.8223 90.8472 84.8223C91.0396 84.8223 91.2008 84.8874 91.3309 85.0175L91.7212 85.4078C91.8513 85.5379 91.9164 85.6991 91.9164 85.8915C91.9164 86.0838 91.8513 86.245 91.7212 86.3751L89.9054 88.191C89.8545 88.2419 89.8516 88.29 89.8969 88.3352L90.7709 89.2092C90.8218 89.2601 90.8727 89.2601 90.9236 89.2092L92.5698 87.5631C92.6999 87.433 92.8611 87.3679 93.0534 87.3679C93.2457 87.3679 93.407 87.433 93.5371 87.5631L93.8425 87.8685C93.9727 87.9986 94.0377 88.1599 94.0377 88.3522C94.0377 88.5445 93.9727 88.7057 93.8425 88.8359L92.1964 90.482C92.1455 90.5329 92.1427 90.581 92.1879 90.6263L93.2316 91.6699C93.2825 91.7209 93.3334 91.7209 93.3843 91.6699L95.2002 89.8541C95.3303 89.724 95.4915 89.6589 95.6839 89.6589C95.8762 89.6589 96.0374 89.724 96.1675 89.8541L96.5578 90.2444C96.6879 90.3745 96.753 90.5357 96.753 90.7281C96.753 90.9204 96.6879 91.0816 96.5578 91.2117L93.4522 94.3173C93.3221 94.4475 93.1609 94.5125 92.9686 94.5125C92.7762 94.5125 92.615 94.4475 92.4849 94.3173L87.258 89.0904C87.1279 88.9603 87.0628 88.7991 87.0628 88.6068C87.0628 88.4144 87.1279 88.2532 87.258 88.1231L90.3636 85.0175ZM96.5701 78.811C96.6889 78.6922 96.8303 78.6469 96.9944 78.6752C97.1641 78.6978 97.2885 78.7827 97.3677 78.9298L100.982 85.8707C101.073 86.0517 101.101 86.2441 101.067 86.4477C101.039 86.6457 100.954 86.8154 100.813 86.9568L99.9982 87.7714C99.8511 87.9185 99.6757 88.009 99.4721 88.0429C99.2741 88.0712 99.0874 88.0373 98.912 87.9411L91.9711 84.3264C91.824 84.2472 91.7363 84.1256 91.708 83.9615C91.6854 83.7918 91.7335 83.6476 91.8523 83.5288L92.6838 82.6972C92.8253 82.5558 92.995 82.4766 93.193 82.4596C93.3909 82.4313 93.572 82.4709 93.736 82.5784L98.7593 85.7689C98.765 85.7745 98.7734 85.7717 98.7848 85.7604C98.7904 85.7547 98.7904 85.7491 98.7848 85.7434L95.6452 80.6692C95.5434 80.4995 95.5038 80.3185 95.5264 80.1262C95.549 79.9225 95.6311 79.75 95.7725 79.6086L96.5701 78.811Z" fill="white"/>
<path d="M48.9601 53.4259C48.8368 50.3654 51.1773 47.7653 54.2339 47.5673C55.9812 47.5069 57.6827 48.133 58.9741 49.3115C62.9551 52.8616 59.3127 57.0991 57.1581 57.766C55.0034 58.4329 49.309 58.8741 48.9601 53.4259Z" fill="#F9FAFE"/>
<path d="M68.9677 83.0062C63.9299 85.4687 56.799 80.6566 49.822 71.5763C46.646 67.6944 43.8718 63.5005 41.542 59.0588C38.6579 53.0018 36.7366 46.5318 35.8475 39.8824C34.5958 31.4074 35.3858 24.7279 39.5515 22.6964C43.7171 20.6649 50.4171 23.1479 56.2654 29.2322C60.3695 33.5107 63.6426 39.7798 66.9874 46.6747C71.5019 55.9089 73.1436 63.9427 73.082 70.8273C73.0205 76.296 72.097 81.4877 68.9677 83.0062ZM68.2494 80.749C70.6709 79.5691 69.3678 71.4224 69.2755 66.9079C69.1729 61.2647 67.6954 54.6571 63.9401 46.9517C61.1596 41.2367 58.4509 36.0142 55.1266 32.4129C51.9972 29.027 47.8623 26.2567 44.9894 25.6411C43.5009 25.4257 41.9819 25.6616 40.6288 26.3183C37.3968 27.8984 38.1561 33.7159 39.336 40.6827C40.1894 46.1841 41.8416 51.5314 44.2404 56.5553C46.1693 60.2447 48.44 63.7451 51.0224 67.0105C56.7272 74.6339 64.3505 82.6984 68.2494 80.749Z" fill="#F9FAFE"/>
<path d="M21.0009 53.6927C20.9086 48.0906 27.8445 43.6684 38.351 41.1854C42.9144 39.9588 47.5956 39.2228 52.3152 38.9897C59.4051 38.8666 66.5873 39.5335 71.8918 41.2162C79.6075 43.6684 83.9168 48.9627 83.9989 53.6003C84.081 58.238 79.4229 62.2497 71.9123 64.9687C66.6386 66.8771 59.9899 67.1747 52.8077 67.2978C43.122 67.4722 35.632 65.5741 29.794 62.5883C25.1255 60.2079 21.0625 57.1709 21.0009 53.6927ZM23.9348 53.4464C23.9348 56.2064 31.4151 58.5766 35.2832 60.4439C40.126 62.8141 46.3232 64.312 54.3468 64.1787C60.308 64.0658 65.8075 63.8196 70.1784 62.301C76.4063 60.1361 80.3668 56.1449 80.3052 52.4614C80.2437 48.778 75.7805 45.9564 69.3781 44.0172C64.4041 42.4266 59.2097 41.6335 53.9877 41.6676C50.0801 41.857 46.2022 42.4448 42.4141 43.4222C33.6826 45.3921 23.8533 48.9832 23.9348 53.4464Z" fill="#F9FAFE"/>
<path d="M35.5602 80.8516C30.8508 77.7735 31.5074 68.8984 35.9809 57.7968C37.78 52.8764 40.0441 48.1386 42.7424 43.6479C46.6215 37.7938 51.3522 32.5512 56.7785 28.0933C63.6015 22.3271 69.2036 20.6444 73.0923 23.1684C76.9809 25.6924 78.8483 31.6126 76.4269 40.0876C74.7339 46.0283 70.8555 52.3486 66.4949 59.0691C60.6158 68.1186 54.3878 73.9772 48.2932 77.712C43.4606 80.6464 38.4228 82.6984 35.5602 80.8516ZM37.0172 78.5328C39.336 80.041 45.841 74.5621 49.781 72.0893C54.7059 69.0113 59.7539 64.1889 64.566 56.781C68.1366 51.2815 71.3173 46.1206 72.7742 41.2778C74.8263 34.3726 73.9028 28.514 70.835 26.5235C67.7672 24.533 62.6268 27.0057 57.1376 31.7562C52.7372 35.4367 48.8941 39.7361 45.7281 44.52C43.4917 48.1835 41.6025 52.0478 40.085 56.0628C36.2784 65.1226 33.2209 76.1011 36.9659 78.5328H37.0172Z" fill="#F9FAFE"/>
</svg>
