<svg xmlns="http://www.w3.org/2000/svg" width="106" height="106" viewBox="0 0 106 106">
  <g id="sass" transform="translate(-511 -208)">
    <rect id="Retângulo_4" data-name="Retângulo 4" width="106" height="106" rx="24" transform="translate(511 208)" fill="#ff81ca"/>
    <path id="Caminho_19" data-name="Caminho 19" d="M.5,33h105M.5,53h105M.5,73h105M7.5,98.5h91M7,7.5H98.5" transform="translate(511 208)" fill="none" stroke="#fc74c3" stroke-width="1"/>
    <path id="Caminho_22" data-name="Caminho 22" d="M32.361.5v105M52.251.5v105M72.142.5v105M7,8V97.686L98,7V99Z" transform="translate(511 208)" fill="none" stroke="#fc74c3" stroke-linecap="round" stroke-linejoin="round" stroke-width="1"/>
    <path id="Caminho_23" data-name="Caminho 23" d="M98.5,53c0,25.124-20.59,45.5-46,45.5S6.5,78.124,6.5,53,27.09,7.5,52.5,7.5,98.5,27.876,98.5,53Z" transform="translate(511 208)" fill="none" stroke="#fc74c3" stroke-width="1"/>
    <path id="Caminho_24" data-name="Caminho 24" d="M78.5,53a27,27,0,1,1-27-26.5A26.754,26.754,0,0,1,78.5,53Z" transform="translate(511 208)" fill="none" stroke="#fc74c3" stroke-width="1"/>
    <path id="Caminho_20" data-name="Caminho 20" d="M106,58.5V82a24,24,0,0,1-24,24H58.5Z" transform="translate(511 208)" fill="#fc74c3" fill-rule="evenodd"/>
    <path id="Caminho_21" data-name="Caminho 21" d="M87.325,96.984a1.81,1.81,0,0,0,.619-1.536,3.411,3.411,0,0,0-1.128-1.858,2.916,2.916,0,0,0-1.723-.993,1.878,1.878,0,0,0-1.5.653,2.7,2.7,0,0,0-.288.339.113.113,0,0,0,.017.153l3.5,3.5a.121.121,0,0,0,.161.025A2.692,2.692,0,0,0,87.325,96.984ZM82.107,92.1a4.624,4.624,0,0,1,3.2-1.553,4.247,4.247,0,0,1,3.123,1.425,4.176,4.176,0,0,1,.042,6.491q-.67.67-1.459,1.324a.681.681,0,0,1-.518.161.78.78,0,0,1-.5-.229l-5.142-5.142a.78.78,0,0,1-.229-.5.681.681,0,0,1,.161-.518Q81.436,92.775,82.107,92.1Zm7.757-7.587a.7.7,0,0,1,.967,0l.39.39a.7.7,0,0,1,0,.967l-1.816,1.816q-.076.076-.009.144l.874.874a.1.1,0,0,0,.153,0l1.646-1.646a.7.7,0,0,1,.967,0l.305.305a.7.7,0,0,1,0,.967L91.7,89.982q-.076.076-.009.144l1.044,1.044a.1.1,0,0,0,.153,0L94.7,89.354a.7.7,0,0,1,.967,0l.39.39a.7.7,0,0,1,0,.967l-3.106,3.106a.7.7,0,0,1-.967,0L86.758,88.59a.7.7,0,0,1,0-.967Zm6.206-6.207a.459.459,0,0,1,.424-.136.471.471,0,0,1,.373.255l3.614,6.941a.917.917,0,0,1,.085.577.877.877,0,0,1-.254.509l-.815.815a.947.947,0,0,1-.526.271.877.877,0,0,1-.56-.1l-6.941-3.615a.5.5,0,0,1-.119-.8l.831-.832a.8.8,0,0,1,.509-.238.762.762,0,0,1,.543.119l5.023,3.19c.006.006.014,0,.025-.008a.011.011,0,0,0,0-.017l-3.14-5.074a.872.872,0,0,1,.127-1.061Z" transform="translate(511 208)" fill="#fff"/>
    <path id="sass-brands" d="M36.743,60.178C36.706,60.251,36.67,60.31,36.743,60.178Zm30.324-10.59a15.965,15.965,0,0,0-7.06,1.643,14.992,14.992,0,0,1-1.582-3.664,9.78,9.78,0,0,1-.134-3.079,25.933,25.933,0,0,1,.925-3.311c-.012-.134-.17-.8-1.741-.816s-2.921.3-3.078.718a14.95,14.95,0,0,0-.645,2.325c-.28,1.424-3.139,6.512-4.758,9.165a9.451,9.451,0,0,1-1.083-2.678,9.78,9.78,0,0,1-.134-3.079A25.933,25.933,0,0,1,48.7,43.5c-.012-.134-.17-.8-1.739-.816s-2.921.3-3.079.718-.329,1.388-.645,2.325-4.125,9.409-5.122,11.612c-.511,1.12-.949,2.021-1.266,2.629-.049.1-.085.158-.11.207.037-.061.061-.122.061-.1-.268.523-.426.816-.426.816v.012c-.207.39-.438.742-.548.742a5.049,5.049,0,0,1,.037-2.422c.572-2.946,1.923-7.522,1.911-7.68-.012-.085.256-.876-.889-1.3a1.433,1.433,0,0,0-1.607.268c-.1,0-.17.243-.17.243s1.229-5.161-2.36-5.161c-2.24,0-5.356,2.459-6.887,4.686-.962.523-3.043,1.655-5.234,2.86-.84.463-1.7.937-2.52,1.388-.061-.061-.11-.122-.17-.183-4.356-4.65-12.4-7.936-12.059-14.18C6,37.891,6.793,31.915,21.347,24.66c11.928-5.94,21.465-4.309,23.107-.682,2.361,5.173-5.1,14.8-17.486,16.189-4.721.523-7.2-1.3-7.824-1.984-.645-.718-.742-.755-.986-.621-.4.219-.146.852,0,1.229a7.334,7.334,0,0,0,4.478,3.518c2.276.742,7.812,1.156,14.505-1.436,7.52-2.9,13.373-10.967,11.657-17.722C47.05,16.286,35.667,14.034,24.9,17.856,18.49,20.132,11.554,23.711,6.565,28.373.639,33.923-.31,38.755.08,40.776c1.386,7.169,11.268,11.843,15.222,15.3-.195.11-.377.207-.548.3-1.983.986-9.516,4.93-11.4,9.092-2.13,4.723.353,8.106,1.983,8.569,5.087,1.412,10.3-1.132,13.093-5.307s2.459-9.628,1.169-12.111c-.012-.037-.037-.061-.049-.1.511-.3,1.035-.609,1.558-.913,1.009-.6,1.995-1.144,2.859-1.619a18.906,18.906,0,0,0-1.022,5.185c-.219,2.678.889,6.147,2.325,7.51a2.555,2.555,0,0,0,1.873.609c1.68,0,2.434-1.388,3.273-3.043,1.035-2.021,1.948-4.37,1.948-4.37s-1.144,6.354,1.984,6.354c1.143,0,2.287-1.473,2.8-2.227v.012s.024-.049.085-.146c.122-.183.183-.292.183-.292V63.55c.463-.791,1.473-2.6,2.993-5.6,1.972-3.871,3.857-8.7,3.857-8.7a24.5,24.5,0,0,0,.755,3.14A29.4,29.4,0,0,0,46.65,56.04c-.463.633-.742,1-.742,1a.038.038,0,0,0,.012.024c-.365.487-.779,1.01-1.205,1.521a42.962,42.962,0,0,0-3.652,4.577,1.244,1.244,0,0,0,.341,1.668,2.959,2.959,0,0,0,1.91.3,8.441,8.441,0,0,0,2.86-.657,10.005,10.005,0,0,0,2.458-1.29,5.5,5.5,0,0,0,2.361-4.844,10.081,10.081,0,0,0-.889-3.432c.134-.195.28-.4.414-.609a64.708,64.708,0,0,0,4.271-7.379,24.5,24.5,0,0,0,.755,3.14,21.468,21.468,0,0,0,1.386,3.128,13.38,13.38,0,0,0-4.149,5.368c-.9,2.593-.195,3.761,1.132,4.029a4.084,4.084,0,0,0,2.081-.426,9.672,9.672,0,0,0,2.628-1.351c1.521-1.12,2.993-2.69,2.9-4.82a9.055,9.055,0,0,0-.657-2.848,14.857,14.857,0,0,1,7.558-.876c6.777.791,8.1,5.027,7.848,6.792A4.5,4.5,0,0,1,74.112,62.1c-.475.292-.621.4-.584.621.061.316.28.3.682.231A5.288,5.288,0,0,0,77.9,58.24c.195-4.138-3.784-8.691-10.833-8.654ZM14.827,67.2c-2.238,2.447-5.379,3.372-6.729,2.593-1.448-.842-.876-4.443,1.885-7.05A36.064,36.064,0,0,1,15.266,58.8c.329-.195.8-.487,1.388-.84.1-.061.146-.085.146-.085.11-.073.231-.134.353-.207A9.715,9.715,0,0,1,14.827,67.2ZM31.182,56.076c-.779,1.911-2.421,6.78-3.419,6.524-.852-.219-1.375-3.932-.17-7.583a16.788,16.788,0,0,1,2.666-4.881c1.228-1.375,2.579-1.814,2.9-1.266.426.718-1.485,6.013-1.972,7.206Zm13.511,6.451c-.329.17-.633.28-.779.195-.11-.061.134-.292.134-.292s1.692-1.814,2.361-2.641c.39-.487.84-1.059,1.326-1.692,0,.061.012.122.012.195-.016,2.179-2.108,3.652-3.058,4.236Zm10.417-2.374c-.243-.17-.207-.742.609-2.52a9.46,9.46,0,0,1,2.313-2.982,4.4,4.4,0,0,1,.231,1.315,4.291,4.291,0,0,1-3.151,4.187Z" transform="translate(526.996 214.996)" fill="#f9fafe"/>
  </g>
</svg>
