<svg width="107" height="106" viewBox="0 0 107 106" fill="none" xmlns="http://www.w3.org/2000/svg">
<rect width="106" height="106" rx="24" fill="#53ACED"/>
<path d="M0.5 33H105.5M0.5 53H105.5M0.5 73H105.5M7.5 98.5H98.5M7 7.5H98.5" stroke="#66B7F2"/>
<path d="M32.3607 0.5V105.5M52.2514 0.5V105.5M72.1421 0.5V105.5M7 8L7 97.6857L98 7V99L7 8Z" stroke="#66B7F2" stroke-linecap="round" stroke-linejoin="round"/>
<path d="M98.5 53C98.5 78.1239 77.9102 98.5 52.5 98.5C27.0898 98.5 6.5 78.1239 6.5 53C6.5 27.8761 27.0898 7.5 52.5 7.5C77.9102 7.5 98.5 27.8761 98.5 53Z" stroke="#66B7F2"/>
<path d="M78.5 53C78.5 67.6269 66.4204 79.5 51.5 79.5C36.5796 79.5 24.5 67.6269 24.5 53C24.5 38.3731 36.5796 26.5 51.5 26.5C66.4204 26.5 78.5 38.3731 78.5 53Z" stroke="#66B7F2"/>
<path fill-rule="evenodd" clip-rule="evenodd" d="M106 57.5V82C106 95.2548 95.2548 106 82 106H57.5L106 57.5Z" fill="#66B7F2"/>
<path d="M87.825 97.4838C88.3059 97.003 88.5123 96.491 88.4444 95.948C88.3822 95.3993 88.006 94.7798 87.3159 94.0897C86.6937 93.4675 86.1195 93.1365 85.5934 93.0969C85.073 93.0517 84.5723 93.2695 84.0915 93.7503C83.984 93.8578 83.8879 93.9709 83.803 94.0897C83.7691 94.1463 83.7747 94.1972 83.82 94.2424L87.3244 97.7469C87.3753 97.7978 87.429 97.8063 87.4856 97.7723C87.6044 97.6875 87.7175 97.5913 87.825 97.4838ZM82.6066 92.6048C83.6248 91.5865 84.6911 91.0689 85.8055 91.052C86.9143 91.0293 87.9551 91.5045 88.9281 92.4775C89.9859 93.5353 90.5092 94.6299 90.4979 95.7613C90.4922 96.887 89.9831 97.9562 88.9705 98.9687C88.5236 99.4156 88.0372 99.8569 87.5111 100.292C87.364 100.417 87.1915 100.471 86.9935 100.454C86.7955 100.437 86.6286 100.36 86.4928 100.225L81.3508 95.0825C81.215 94.9467 81.1386 94.7798 81.1216 94.5819C81.1047 94.3839 81.1584 94.2113 81.2829 94.0642C81.7184 93.5382 82.1597 93.0517 82.6066 92.6048ZM90.3636 85.0175C90.4937 84.8874 90.6549 84.8223 90.8472 84.8223C91.0396 84.8223 91.2008 84.8874 91.3309 85.0175L91.7212 85.4078C91.8513 85.5379 91.9164 85.6991 91.9164 85.8915C91.9164 86.0838 91.8513 86.245 91.7212 86.3751L89.9054 88.191C89.8545 88.2419 89.8516 88.29 89.8969 88.3352L90.7709 89.2092C90.8218 89.2601 90.8727 89.2601 90.9236 89.2092L92.5698 87.5631C92.6999 87.433 92.8611 87.3679 93.0534 87.3679C93.2457 87.3679 93.407 87.433 93.5371 87.5631L93.8425 87.8685C93.9727 87.9986 94.0377 88.1599 94.0377 88.3522C94.0377 88.5445 93.9727 88.7057 93.8425 88.8359L92.1964 90.482C92.1455 90.5329 92.1427 90.581 92.1879 90.6263L93.2316 91.6699C93.2825 91.7209 93.3334 91.7209 93.3843 91.6699L95.2002 89.8541C95.3303 89.724 95.4915 89.6589 95.6839 89.6589C95.8762 89.6589 96.0374 89.724 96.1675 89.8541L96.5578 90.2444C96.6879 90.3745 96.753 90.5357 96.753 90.7281C96.753 90.9204 96.6879 91.0816 96.5578 91.2117L93.4522 94.3173C93.3221 94.4475 93.1609 94.5125 92.9686 94.5125C92.7762 94.5125 92.615 94.4475 92.4849 94.3173L87.258 89.0904C87.1279 88.9603 87.0628 88.7991 87.0628 88.6068C87.0628 88.4144 87.1279 88.2532 87.258 88.1231L90.3636 85.0175ZM96.5701 78.811C96.6889 78.6922 96.8303 78.6469 96.9944 78.6752C97.1641 78.6978 97.2885 78.7827 97.3677 78.9298L100.982 85.8707C101.073 86.0517 101.101 86.2441 101.067 86.4477C101.039 86.6457 100.954 86.8154 100.813 86.9568L99.9982 87.7714C99.8511 87.9185 99.6757 88.009 99.4721 88.0429C99.2741 88.0712 99.0874 88.0373 98.912 87.9411L91.9711 84.3264C91.824 84.2472 91.7363 84.1256 91.708 83.9615C91.6854 83.7918 91.7335 83.6476 91.8523 83.5288L92.6838 82.6972C92.8253 82.5558 92.995 82.4766 93.193 82.4596C93.3909 82.4313 93.572 82.4709 93.736 82.5784L98.7593 85.7689C98.765 85.7745 98.7734 85.7717 98.7848 85.7604C98.7904 85.7547 98.7904 85.7491 98.7848 85.7434L95.6452 80.6692C95.5434 80.4995 95.5038 80.3185 95.5264 80.1262C95.549 79.9225 95.6311 79.75 95.7725 79.6086L96.5701 78.811Z" fill="white"/>
<path d="M19 35.4705V39.3728H31.4624V74.8045H40.3059V39.3728H52.7683V35.5423C52.7683 33.3877 52.7683 31.64 52.6724 31.5922C52.6724 31.5203 45.0752 31.4964 35.8482 31.4964L19.0719 31.5682V35.4944L19 35.4705ZM75.0089 31.4725C77.4534 32.047 79.3228 33.1483 81.0004 34.8959C81.8872 35.8535 83.2053 37.5294 83.3012 37.9603C83.3012 38.1039 79.155 40.905 76.6386 42.4611C76.5427 42.5329 76.1593 42.1259 75.7758 41.5035C74.5296 39.7319 73.2593 38.9658 71.2702 38.8221C68.3942 38.6306 66.4769 40.1389 66.4769 42.6526C66.4769 43.4187 66.6207 43.8496 66.9083 44.4721C67.5554 45.7888 68.7537 46.5788 72.4685 48.2068C79.3228 51.1514 82.2946 53.0906 84.092 55.8677C86.1292 58.9799 86.5845 63.8637 85.2185 67.5266C83.6846 71.5246 79.9459 74.2299 74.6015 75.1157C72.9238 75.403 69.0892 75.3551 67.2918 75.0439C63.4572 74.3256 59.7904 72.4104 57.5376 69.9446C56.6508 68.987 54.9492 66.4253 55.0451 66.2578L55.9558 65.6832L59.5507 63.6004L62.2589 62.0203L62.882 62.8582C63.6729 64.1031 65.4464 65.779 66.4769 66.3535C69.5925 67.9575 73.7626 67.7421 75.8237 65.8747C76.7105 65.0607 77.0939 64.1989 77.0939 63.0019C77.0939 61.9006 76.9262 61.3979 76.375 60.56C75.608 59.5066 74.0742 58.6447 69.7603 56.7295C64.7993 54.6228 62.6903 53.2821 60.7251 51.2232C59.5986 49.9783 58.5681 48.0392 58.0888 46.4352C57.7293 45.0466 57.6095 41.6471 57.945 40.2825C58.9755 35.4944 62.5944 32.1428 67.7711 31.1852C69.4487 30.85 73.4031 30.9937 75.0568 31.4246L75.0089 31.4725Z" fill="#F9FAFE"/>
</svg>
